<?xml version="1.0" encoding="UTF-8" standalone="no"?>
<!-- Created with Inkscape (http://www.inkscape.org/) -->
<svg
   xmlns:svg="http://www.w3.org/2000/svg"
   xmlns="http://www.w3.org/2000/svg"
   version="1.0"
   width="999.99988"
   height="874.93494"
   id="svg2438">
  <defs
     id="defs2440"><clipPath
   id="id19">
      <path
   d="M 166.82,578.86 L 248.72,578.86 L 248.72,506.86 L 166.82,506.86 L 166.82,578.86 z "
   id="path33" />

    </clipPath>

        
      </defs>
  <g
     transform="translate(723.3685,818.556)"
     id="layer1">
    <path
       d="M -248.92981,-800.28306 C -234.88415,-824.64698 -211.90258,-824.64698 -197.85692,-800.28306 L 270.63628,12.082019 C 284.68194,36.433594 273.19116,56.354244 245.11218,56.354244 L -691.83719,56.378928 C -719.92852,56.378928 -731.4193,36.458279 -717.37364,12.106704 L -248.92981,-800.28306 z "
       style="fill:#ee1c23;fill-rule:nonzero;stroke:none"
       id="path2456" />
    <path
       d="M -562.52576,-47.803354 L 115.7884,-47.828039 L -223.39336,-635.95622 L -562.52576,-47.803354"
       style="fill:white;fill-rule:nonzero;stroke:none"
       id="path155" />
    <path
       d="M -59.941694,-152.56708 L -91.637007,-222.86946 L -158.54522,-191.55676 L -129.56524,-180.09066 C -148.10354,-147.39561 -183.14365,-125.29035 -223.39225,-125.29035 C -240.57289,-125.29035 -256.82784,-129.31398 -271.25612,-136.47258 L -292.21354,-98.174074 C -271.56468,-87.60897 -248.16347,-81.647585 -223.39225,-81.647585 C -164.70408,-81.647585 -113.82866,-115.07084 -88.687171,-163.93444 L -59.941694,-152.56708 M -235.31502,-415.36171 L -280.27843,-352.72397 L -219.7389,-310.37716 L -224.31793,-341.23319 C -186.75997,-341.51706 -150.11535,-322.18884 -129.99722,-287.2845 C -121.39456,-272.38721 -116.75381,-256.28037 -115.74174,-240.1982 L -72.123654,-241.17325 C -73.320868,-264.3523 -79.862346,-287.61775 -92.254127,-309.10589 C -121.59204,-359.98131 -175.93568,-387.39381 -230.77301,-384.76487 L -235.31502,-415.36171 M -374.93238,-131.91823 L -298.26132,-124.25359 L -291.90498,-197.92544 L -316.30593,-178.52317 C -335.32558,-210.95903 -336.93009,-252.39251 -316.81196,-287.2845 C -308.2093,-302.1818 -296.60744,-314.26502 -283.20358,-323.18858 L -305.8519,-360.51203 C -325.31589,-347.88575 -342.16328,-330.58168 -354.55506,-309.09355 C -383.89297,-258.21813 -380.42475,-197.39472 -350.72891,-151.16005 L -374.93238,-131.91823"
       style="fill:black;fill-rule:nonzero;stroke:none"
       id="path157" />
  </g>
</svg>
