<?xml version="1.0" encoding="UTF-8"?>
<svg xmlns="http://www.w3.org/2000/svg" width="834.116" height="734.423" version="1.1">
<title>1.7 Пересечение с круговым движением</title>
<path style="fill:#ffffff;" d="m 0,689.423 c 0,24.853 20.147,45 45,45 l 744.116,0 c 24.853,0 45,-20.147 45,-45 c 0,-7.899 -2.079,-15.659 -6.029,-22.5 l -372.058,-644.423 c -8.038,-13.923 -22.894,-22.5 -38.971,-22.5 c -16.077,0 -30.933,8.577 -38.971,22.5 l -372.058,644.423 c -3.950,6.841 -6.029,14.601 -6.029,22.5 z"/>
<path style="fill:none;stroke:#000000;stroke-width:2px;" d="m 1,689.423 c 0,24.301 19.699,44 44,44 l 744.116,0 c 24.301,0 44,-19.699 44,-44 c 0,-7.724 -2.033,-15.311 -5.895,-22.0 l -372.058,-644.423 c -7.860,-13.614 -22.385,-22.0 -38.105,-22.0 c -15.720,0 -30.245,8.386 -38.105,22.0 l -372.058,644.423 c -3.862,6.689 -5.895,14.276 -5.895,22.0 z"/>
<path style="fill:#ff0000;" d="m 10,689.423 c 0,19.330 15.670,35 35,35 l 744.116,0 c 19.330,0 35,-15.670 35,-35 c 0,-6.144 -1.617,-12.179 -4.689,-17.5 l -372.058,-644.423 c -6.252,-10.829 -17.807,-17.5 -30.311,-17.5 c -12.504,0 -24.059,6.671 -30.311,17.5 l -372.058,644.423 c -3.072,5.321 -4.689,11.357 -4.689,17.5 z m 83.634,-33.852 c 0,-1.755 0.462,-3.480 1.340,-5.000 l 313.424,-542.866 c 1.786,-3.094 5.087,-5 8.660,-5.000 c 3.573,0 6.873,1.906 8.660,5.000 l 313.424,542.866 c 0.878,1.520 1.340,3.245 1.340,5.000 c 0,5.523 -4.477,10 -10,10 l -626.848,0 c -5.523,0 -10,-4.477 -10,-10 z"/>
<path style="fill:#000000;" d="m 437.185,589.223 c 35.770,-6.307 66.514,-29.018 83.057,-61.354 l -45.806,0.000 68.852,-119.344 68.852,119.344 -46.387,0.000 c -19.009,53.546 -65.339,92.736 -121.295,102.602 z"/>
<path style="fill:#000000;" d="m 505.844,400.582 c -23.347,-27.824 -58.387,-43.094 -94.662,-41.252 l 22.903,39.669 -137.781,0.044 68.929,-119.300 23.193,40.172 c 55.876,-10.311 112.981,10.217 149.504,53.744 z"/>
<path style="fill:#000000;" d="m 308.146,435.442 c -12.423,34.131 -8.127,72.112 11.606,102.606 l 22.903,-39.669 68.929,119.300 -137.781,-0.044 23.193,-40.172 c -36.867,-43.235 -47.642,-102.953 -28.209,-156.346 z"/>
</svg>