<?xml version="1.0" encoding="UTF-8" standalone="no"?>
<svg
   id="Layer_1"
   data-name="Layer 1"
   viewBox="0 0 122.88 111.54"
   version="1.1"
   sodipodi:docname="warning.svg"
   inkscape:version="1.1.1 (c3084ef, 2021-09-22)"
   xmlns:inkscape="http://www.inkscape.org/namespaces/inkscape"
   xmlns:sodipodi="http://sodipodi.sourceforge.net/DTD/sodipodi-0.dtd"
   xmlns="http://www.w3.org/2000/svg"
   xmlns:svg="http://www.w3.org/2000/svg">
  <sodipodi:namedview
     id="namedview837"
     pagecolor="#505050"
     bordercolor="#ffffff"
     borderopacity="1"
     inkscape:pageshadow="0"
     inkscape:pageopacity="0"
     inkscape:pagecheckerboard="1"
     showgrid="false"
     showguides="true"
     inkscape:guide-bbox="true"
     inkscape:zoom="1.5032257"
     inkscape:cx="33.594422"
     inkscape:cy="60.203865"
     inkscape:window-width="1312"
     inkscape:window-height="803"
     inkscape:window-x="0"
     inkscape:window-y="25"
     inkscape:window-maximized="0"
     inkscape:current-layer="Layer_1" />
  <defs
     id="defs826">
    <style
       id="style824">.cls-1{fill:#cf1f25;}.cls-2{fill:#fec901;fill-rule:evenodd;}.cls-3{fill:#010101;}</style>
  </defs>
  <title
     id="title828">warning</title>
  <path
     class="cls-1"
     d="M2.35,84.42,45.28,10.2l.17-.27h0A23,23,0,0,1,52.5,2.69,17,17,0,0,1,61.57,0a16.7,16.7,0,0,1,9.11,2.69,22.79,22.79,0,0,1,7,7.26q.19.32.36.63l42.23,73.34.24.44h0a22.48,22.48,0,0,1,2.37,10.19,17.63,17.63,0,0,1-2.17,8.35,15.94,15.94,0,0,1-6.93,6.6c-.19.1-.39.18-.58.26a21.19,21.19,0,0,1-9.11,1.75v0H17.61c-.22,0-.44,0-.65,0a18.07,18.07,0,0,1-6.2-1.15A16.42,16.42,0,0,1,3,104.24a17.53,17.53,0,0,1-3-9.57,23,23,0,0,1,1.57-8.74,7.66,7.66,0,0,1,.77-1.51Z"
     id="path830" />
  <path
     class="cls-2"
     d="M9,88.75,52.12,14.16c5.24-8.25,13.54-8.46,18.87,0l42.43,73.69c3.39,6.81,1.71,16-9.33,15.77H17.61C10.35,103.8,5.67,97.43,9,88.75Z"
     id="path832" />
  <path
     d="m 92.105446,85.021005 -5.924158,-13.140195 -12.505789,5.852648 5.416638,2.143125 c -3.464988,6.111021 -10.014321,10.242699 -17.537173,10.242699 -3.211227,0 -6.249434,-0.752053 -8.946218,-2.090062 l -3.917144,7.158357 c 3.85947,1.97472 8.233382,3.08896 12.863362,3.08896 10.969384,0 20.47849,-6.247126 25.177678,-15.380205 l 5.372804,2.124673 M 59.326483,35.902152 50.922389,47.609754 62.23781,55.524778 61.381945,49.757488 c 7.019945,-0.05304 13.869178,3.559574 17.62945,10.083533 1.60792,2.784442 2.47532,5.794967 2.664486,8.800882 l 8.152638,-0.182244 C 89.60475,64.12727 88.382086,59.778732 86.065942,55.762391 80.582404,46.253287 70.425054,41.129627 60.175428,41.620996 l -0.848945,-5.718844 m -26.09583,52.978325 14.330561,1.432592 1.188061,-13.76998 -4.560773,3.626468 c -3.554956,-6.062573 -3.854855,-13.806889 -0.09458,-20.328536 1.60792,-2.784453 3.77642,-5.042923 6.28173,-6.710823 l -4.233191,-6.976112 c -3.638007,2.359977 -6.786947,5.594271 -9.10309,9.610611 -5.483539,9.509104 -4.835294,20.877587 0.715145,29.519291 l -4.523863,3.596489"
     style="fill:#000000;fill-rule:nonzero;stroke:none;stroke-width:0.186909"
     id="path157" />
</svg>
