<?xml version="1.0" encoding="UTF-8" standalone="no"?>
<!-- Created with Inkscape (http://www.inkscape.org/) -->

<svg
   width="1024"
   height="1024"
   viewBox="0 0 270.93333 270.93334"
   version="1.1"
   id="svg5"
   sodipodi:docname="WCS.svg"
   inkscape:version="1.1.1 (c3084ef, 2021-09-22)"
   inkscape:export-filename="/Users/nick/Desktop/WCS.png"
   inkscape:export-xdpi="96"
   inkscape:export-ydpi="96"
   xmlns:inkscape="http://www.inkscape.org/namespaces/inkscape"
   xmlns:sodipodi="http://sodipodi.sourceforge.net/DTD/sodipodi-0.dtd"
   xmlns="http://www.w3.org/2000/svg"
   xmlns:svg="http://www.w3.org/2000/svg">
  <sodipodi:namedview
     id="namedview7"
     pagecolor="#505050"
     bordercolor="#eeeeee"
     borderopacity="1"
     inkscape:pageshadow="0"
     inkscape:pageopacity="0"
     inkscape:pagecheckerboard="0"
     inkscape:document-units="mm"
     showgrid="false"
     inkscape:zoom="0.37454294"
     inkscape:cx="388.47348"
     inkscape:cy="476.58087"
     inkscape:window-width="1312"
     inkscape:window-height="803"
     inkscape:window-x="32"
     inkscape:window-y="36"
     inkscape:window-maximized="0"
     inkscape:current-layer="layer1"
     units="px"
     showguides="false">
    <inkscape:grid
       type="xygrid"
       id="grid7507" />
  </sodipodi:namedview>
  <defs
     id="defs2" />
  <g
     inkscape:label="Background"
     inkscape:groupmode="layer"
     id="g12332"
     style="display:inline">
    <ellipse
       id="ellipse12326"
       style="fill:#8c0000;stroke:#000000;stroke-width:0.329853"
       cx="25.680099"
       cy="102.53898"
       rx="0.083918743"
       ry="0.085865751" />
    <g
       style="fill:#000000;fill-opacity:0.195219;stroke:#000000;stroke-width:2.47304;stroke-miterlimit:4;stroke-dasharray:none;stroke-opacity:1"
       id="g12330"
       transform="matrix(1.5494156,0,0,1.5537874,-0.45408071,194.46424)"
       inkscape:export-filename="/Users/nick/Desktop/WCS.png"
       inkscape:export-xdpi="96"
       inkscape:export-ydpi="96">
      <path
         d="M 132.00288,-122.01378 H 44.000899 C 21.960404,-122.01378 4,-104.05337 4,-82.012877 V 5.989101 C 4,28.029596 21.960404,45.99 44.000899,45.99 h 88.001981 c 22.04049,0 40.0009,-17.960404 40.0009,-40.000899 v -88.001978 c 0,-22.040493 -17.96041,-40.000903 -40.0009,-40.000903 z"
         id="path12328"
         style="fill:#000000;fill-opacity:0.4;stroke:#fff5ff;stroke-width:6.29221;stroke-linejoin:round;stroke-miterlimit:4;stroke-dasharray:none;stroke-dashoffset:0;stroke-opacity:1"
         sodipodi:nodetypes="sssssssss"
         inkscape:export-filename="/Users/nick/Desktop/WCS.iconset/icon_512x512@2x.png"
         inkscape:export-xdpi="144"
         inkscape:export-ydpi="144" />
    </g>
  </g>
  <g
     inkscape:groupmode="layer"
     id="layer2"
     inkscape:label="WCS">
    <path
       style="color:#000000;fill:#ffffff;stroke:#000000;stroke-width:0.976299;stroke-linejoin:round;stroke-miterlimit:4;stroke-dasharray:none;stroke-opacity:1"
       d="m 202.23075,96.102208 c -1.67158,-0.07079 -3.2982,0.215788 -4.42716,0.706522 -2.2579,0.98147 -3.85717,2.257765 -5.87239,3.93934 -1.95014,1.62725 -3.12525,3.14155 -4.91844,5.24737 -1.79316,2.10581 -3.55868,4.27445 -4.80797,6.0761 -2.15708,3.11076 -2.41907,3.48073 -3.09616,4.36898 -0.67478,0.88526 -1.27419,1.79736 -1.86606,2.7459 -0.55822,0.89459 -6.44485,9.39277 -8.21261,11.76074 -1.37447,1.84119 -4.8877,6.07794 -8.02408,9.70227 -1.5682,1.81217 -3.0696,3.5086 -4.19866,4.74134 -3.39637,3.38159 0.0124,0.26471 -2.27737,2.18831 -0.37084,0.30782 -0.75382,0.64253 -1.14248,0.99869 -0.50587,0.46358 -1.68916,1.51721 -2.46207,2.19022 -0.85259,0.7423 -2.0273,1.77579 -2.69247,2.36971 -0.83645,0.74685 -2.20704,1.81286 -3.37606,2.6256 -3.34853,1.842 -0.92638,0.94687 -4.37193,2.47473 -2.82378,0.70032 -4.20969,0.41184 -5.97713,-0.59582 -0.76926,-0.44651 -0.68299,-0.0853 -1.0111,-2.03173 -0.25577,-1.51717 -0.2465,-8.12771 0.79974,-19.15441 0.27949,-2.94536 1.23647,-6.87163 1.2891,-7.00412 0.35701,-0.89844 0.41591,-1.9374 1.05441,-2.50861 1.02529,-1.72111 5.24249,-0.37689 7.91034,-1.7993 1.53876,-0.84792 3.02681,-2.50703 3.6674,-4.28878 0.64057,-1.78176 0.55058,-3.44798 0.26087,-4.74325 -1.15885,-5.18112 -4.25589,-7.29278 -8.41254,-9.83785 l -0.49699,-0.30362 -0.53887,-0.21387 c -4.22251,-1.68356 -7.31969,-1.15251 -10.48236,-0.78291 -1.56445,0.18283 -3.02047,0.44153 -4.36811,0.78482 -3.16103,0.75348 -7.11417,1.88206 -10.90126,3.59945 -2.79144,1.20134 -5.74567,2.74275 -8.62771,5.02968 l -0.002,0.002 -0.002,0.002 c -2.74806,2.18403 -5.095167,4.61154 -7.205306,6.9373 l 0.08569,-0.0935 c -0.779015,0.82764 -2.276018,2.3386 -3.018079,3.0476 -2.980575,2.84777 -5.72474,5.98855 -9.853981,11.19361 -3.086394,3.89053 -7.074311,10.01392 -12.215128,18.52999 -0.556809,0.9224 -0.890299,1.24347 -1.540458,2.20168 -0.0615,-1.54809 -0.134085,-3.13803 -0.295144,-4.92466 -0.215326,-2.38862 -0.312799,-4.08913 -0.792126,-6.16966 -0.40373,-1.75242 -0.551501,-3.59443 -3.574092,-5.75911 -0.255991,-0.18332 -0.696293,-0.55041 -1.72516,-0.97386 -1.028869,-0.42345 -2.762932,-0.669 -4.036801,-0.45446 -2.547736,0.42907 -2.979567,1.14023 -3.566474,1.51615 -1.408975,0.90246 -2.549835,1.9662 -3.621695,3.15453 0.269178,-1.96294 0.650789,-5.44144 0.803552,-6.13719 0.290412,-1.32266 0.471164,-2.67821 0.632177,-4.08829 v -0.002 c 0,0 0.533442,-2.41168 0.980638,-5.38484 0.147766,-0.44833 0.211185,-0.73921 0.268485,-1.00823 0.115925,-0.54425 0.179449,-0.98795 0.243731,-1.47797 0.128566,-0.98005 0.232162,-2.08782 0.321802,-3.30156 0.179279,-2.42749 0.30083,-5.155 0.253253,-7.41467 -0.04013,-1.9053 -0.0771,-3.28308 -0.397968,-4.91892 -0.160435,-0.81794 -0.376383,-1.7485 -1.045379,-2.93685 -0.668997,-1.18836 -2.315371,-2.53925 -3.982102,-3.23829 -8.402548,-0.0261 -9.207139,1.79197 -10.689377,3.00534 -0.847278,0.69609 -1.770972,1.52053 -2.74769,2.4289 -1.953436,1.81677 -3.969367,3.79406 -5.485859,5.61209 -1.257084,1.50703 -4.447479,4.89196 -8.987593,9.43112 -1.370857,1.37058 -2.487128,2.48485 -3.117094,3.15262 0.04254,-0.0451 -0.59873,0.58011 -0.837827,0.79055 -2.369153,2.08518 -6.316211,6.23051 -8.825738,9.07213 -1.2319374,1.39498 -3.4160397,3.84675 -4.8079815,5.39631 -0.7763245,0.86422 -1.4749835,1.67873 -2.0488664,2.39072 -1.9348799,2.43356 -2.2565362,3.40685 -2.2716522,5.37148 0,0.69616 -0.00838,1.60397 0.5940951,3.03996 0.6024803,1.43599 2.4837142,3.5268 4.6861155,4.12456 4.4048035,1.19554 5.6739265,-0.73529 6.5807455,-1.4054 1.813638,-1.34023 2.771904,-2.54414 4.398589,-4.44536 1.324057,-1.54752 2.635672,-3.04364 3.686437,-4.20859 1.050761,-1.16496 2.110876,-2.21925 1.858451,-1.99163 2.80792,-2.55429 5.844614,-5.62277 8.260207,-8.03526 3.010075,-3.00591 5.985868,-6.11726 9.198952,-9.5266 -1.112696,6.46513 -1.996182,12.43157 -2.913352,19.67952 -0.272849,2.15619 -0.564622,5.65982 -0.93113,10.78688 -0.20874,2.92009 0.06724,5.85462 0.474134,8.47255 0.203453,1.30896 0.381719,2.38908 0.868292,3.78467 0.243288,0.6978 0.0361,1.4191 2.098375,3.33785 1.031139,0.95937 3.825613,2.38285 6.565513,1.64027 3.075418,-1.39256 5.562265,-3.8046 7.19769,-5.89088 1.143578,-1.4605 2.231167,-3.12151 3.198974,-4.86546 0.269774,2.01467 0.576673,3.69906 1.026338,5.35813 0.283228,1.04495 0.59332,2.20787 0.603615,2.2475 l 0.03808,0.14321 0.04379,0.14322 c 1.35e-4,4.4e-4 0.513883,1.2312 0.514121,1.23164 2.38e-4,4.5e-4 0.392754,0.65794 0.588382,0.91466 0.391255,0.51344 0.754691,0.85337 1.06442,1.11134 0.619458,0.51597 1.040491,0.72832 1.365277,0.88793 0.649571,0.31922 0.955134,0.38888 1.203423,0.45829 0.496579,0.13881 0.703804,0.16168 0.904472,0.19286 0.401333,0.0623 0.661745,0.0847 0.955884,0.10693 0.588277,0.0444 1.226393,0.0655 1.963179,0.0592 1.473574,-0.0126 3.129425,9.8e-4 5.466818,-0.77527 0.797459,-0.14727 1.334282,-0.55723 1.961275,-1.03115 2.305057,-1.74251 3.477524,-3.13569 4.966026,-5.19962 3.077657,-4.44825 5.974802,-9.57725 8.721011,-13.93568 2.146885,-3.36858 1.317011,-2.05142 3.511255,-5.30084 0.831285,-1.23136 2.191023,-3.14143 2.717223,-3.83431 0.71442,-0.94067 1.678429,-2.21874 2.18406,-2.89484 -0.07134,0.0955 1.802012,-2.11636 3.551246,-4.02718 1.74922,-1.91081 3.71974,-3.98724 4.66898,-4.91702 1.09705,-1.07458 3.01596,-3.04127 4.51473,-4.61721 1.13563,-1.1941 3.4214,-3.19437 3.69215,-3.39131 1.4e-4,-1.1e-4 0.002,-0.002 0.002,-0.002 2.57523,-1.85667 5.53653,-3.18269 9.04661,-4.3728 -0.22791,0.58843 -0.50518,1.16513 -0.6931,1.75866 -2.87179,9.0707 -3.85441,23.29055 -2.61059,33.29251 l 0.008,0.0668 0.0114,0.0668 c 0.70771,4.90083 2.7965,9.51115 6.5541,12.56274 3.75758,3.05159 8.63748,4.12628 13.47566,3.85533 l 0.0857,-0.004 0.0875,-0.008 c 3.78838,-0.30944 7.07686,-1.34744 10.48235,-3.31302 2.45347,-1.41606 5.08469,-3.25771 7.18246,-5.16144 0.58243,-0.52853 1.83837,-1.62969 2.58393,-2.26277 1.09781,-0.93227 2.65714,-2.3724 3.93016,-3.60327 1.13267,-1.09517 2.79882,-2.63236 2.25452,-2.15586 1.39354,-1.21999 1.94957,-1.94423 3.14375,-3.24427 1.19419,-1.30004 2.34414,-2.5733 3.16661,-3.58417 0.47883,-0.58852 1.93136,-2.30706 3.01046,-3.55172 1.29662,-1.49565 2.70437,-3.23767 3.70166,-4.66495 0.48965,-0.70075 1.58613,-2.0815 1.71945,-2.23032 0.92486,-1.03216 1.66523,-1.98571 2.4297,-3.18127 0.87354,-1.36615 1.90046,-2.87514 3.87495,-5.67891 0.4726,-0.67111 0.89907,-1.29436 1.24531,-1.82168 1.19143,-2.08997 2.7893,-4.25156 4.12437,-6.06464 0.87948,-1.19318 2.05398,-2.82561 2.7496,-3.82669 0.42597,-0.61303 2.23451,-2.40672 3.9016,-4.21239 0.0963,0.38872 0.20995,0.85206 0.27991,1.13043 1.64771,6.55759 2.41256,12.87462 2.41256,20.10152 0,2.69232 -0.0802,4.47912 -0.17329,5.27411 -0.0122,0.1037 -0.002,-0.002 -0.0171,0.0553 -0.70263,0.93902 -1.37599,1.82283 -2.08696,2.95213 -1.02959,1.63541 -2.07722,3.40863 -2.90002,4.9934 -2.32499,4.47814 -3.12466,9.60146 -2.18216,14.54672 0.20429,1.08725 0.49966,2.29175 1.48333,3.72548 0.98584,1.43689 3.15665,3.04152 5.39255,3.31302 4.47183,0.543 6.07027,-1.67328 7.20531,-2.82418 2.77007,-2.80876 3.92982,-5.08324 4.88797,-8.32743 l -0.0743,0.23296 c 2.35337,-6.19982 1.07863,-11.22784 4.80796,-15.15018 1.63603,-1.71859 4.26264,-4.04017 3.39892,-3.39705 0.46922,-0.3494 1.65568,-1.23703 2.66391,-1.99162 4.01227,-2.8922 6.4166,-5.13466 10.71846,-7.5808 2.38316,-1.52354 4.79598,-2.92652 7.17674,-4.04055 2.27914,-1.05504 4.9563,-2.08525 5.52204,-2.24369 5.44254,-1.98388 8.28392,-2.5081 9.28464,-2.81275 1.65721,-0.4894 1.04751,-0.49721 2.67152,-0.83638 h 0.002 c 1.09619,-0.20671 2.32362,0.005 4.72609,-1.9038 1.20125,-0.95434 2.25333,-2.67164 2.6106,-3.92788 0.35647,-1.25346 0.32923,-2.01153 0.33133,-2.53203 v -0.004 c 0.003,-0.59027 0.0178,-1.29054 -0.31609,-2.47283 -0.33444,-1.18409 -1.3577,-3.26693 -3.50174,-4.43582 -3.4608,-1.48737 -7.68861,-0.0727 -10.21958,0.68538 -8.96889,2.90283 -17.2958,5.55718 -25.37089,10.67609 -0.99589,0.63976 -2.34439,1.54534 -4.1739,2.79555 -0.95023,0.64936 -2.14034,1.44664 -2.04125,1.38249 -1.6538,1.07092 -3.45047,2.51141 -5.29164,4.00618 -0.25592,0.20777 -0.44534,0.37737 -0.68929,0.57858 -0.39623,-4.29378 -0.94803,-8.57631 -1.67185,-12.50164 -0.65559,-3.5553 -1.39987,-6.76633 -2.26785,-9.4884 -0.43398,-1.36104 -0.88738,-2.59503 -1.49093,-3.81524 -0.60357,-1.22018 -1.09135,-2.513487 -3.23707,-4.050088 v 0.002 c -1.3127,-0.940062 -3.02978,-1.368988 -4.70134,-1.43978 z"
       id="path21"
       sodipodi:nodetypes="cssssssssccscscccsscccsscccscccccccssscsssssscscccssssssccsssccssccssssscccssssscccscccsssssscccccccscssssccccccscccsscscsscscssccsccsccsscssscccccccccccssssscccscscssscccc" />
  </g>
  <g
     inkscape:label="Foreground"
     inkscape:groupmode="layer"
     id="layer1"
     style="display:inline">
    <ellipse
       id="path1500"
       style="fill:#8c0000;stroke:#000000;stroke-width:0.329853"
       cx="25.680099"
       cy="102.53898"
       rx="0.083918743"
       ry="0.085865751" />
    <g
       style="fill:#000000;fill-opacity:0;stroke:#ffffff;stroke-width:8.37034;stroke-miterlimit:4;stroke-dasharray:none;stroke-opacity:1"
       id="g3468"
       transform="matrix(1.5361399,0,0,1.5356949,0.28345186,193.80407)"
       inkscape:export-filename="/Users/nick/Desktop/WCS.png"
       inkscape:export-xdpi="96"
       inkscape:export-ydpi="96">
      <path
         d="M 132.00288,-122.01378 H 44.000899 C 21.960404,-122.01378 4,-104.05337 4,-82.012877 V 5.989101 C 4,28.029596 21.960404,45.99 44.000899,45.99 h 88.001981 c 22.04049,0 40.0009,-17.960404 40.0009,-40.000899 v -88.001978 c 0,-22.040493 -17.96041,-40.000903 -40.0009,-40.000903 z"
         id="path3444"
         style="fill:#000000;fill-opacity:0;stroke:#ffffff;stroke-width:8.37034;stroke-linejoin:round;stroke-miterlimit:4;stroke-dasharray:none;stroke-dashoffset:0;stroke-opacity:1"
         sodipodi:nodetypes="sssssssss"
         inkscape:export-filename="/Users/nick/Desktop/WCS.iconset/icon_512x512@2x.png"
         inkscape:export-xdpi="144"
         inkscape:export-ydpi="144" />
    </g>
  </g>
</svg>
